<?xml version="1.0" encoding="utf-8"?>
<!-- Generator: Adobe Illustrator 19.2.1, SVG Export Plug-In . SVG Version: 6.00 Build 0)  -->
<svg version="1.1" id="Capa_1" xmlns="http://www.w3.org/2000/svg" xmlns:xlink="http://www.w3.org/1999/xlink" x="0px" y="0px"
	 viewBox="0 0 416 416" style="enable-background:new 0 0 416 416;" xml:space="preserve">
<g>
	<g>
		<g>
			<polygon points="162.8,214.8 162.8,235.7 275,235.7 288.3,222.4 288.3,214.8 			"/>
		</g>
	</g>
	<g>
		<g>
			<polygon points="162.8,256.6 162.8,277.5 233.2,277.5 254.1,256.6 			"/>
		</g>
	</g>
	<g>
		<g>
			<rect x="162.8" y="298.4" width="62.8" height="20.9"/>
		</g>
	</g>
	<g>
		<g>
			<path d="M379.3,190.6l-14.8-14.8c-4.1-4.1-10.7-4.1-14.8,0c-3.9,3.9-7.6,7.6-11,11l29.6,29.6c3.5-3.5,7.1-7.1,11-11
				C383.4,201.3,383.4,194.7,379.3,190.6z"/>
		</g>
	</g>
	<g>
		<g>
			<path d="M331.3,194.3c-37.6,37.6-48.6,48.6-95.3,95.2c0,18.1,0,14.2,0,29.9c25.2,0,18.8,0,29.4,0c2.3-2.3,4.5-4.5,6.7-6.7
				l37.2-37.2v75.3H141.9V162.4h20.9v20.9h125.5v-20.9h20.9v39l20.9-20.9v-18.1c0-11.6-9.4-20.9-20.9-20.9h-29
				c-3.9-4.3-8.9-7.6-14.6-9.2c-4.8-1.4-8.5-5.1-9.9-9.9c-3.8-13.1-15.8-22.7-30.2-22.7c-14.3,0-26.4,9.6-30.2,22.7
				c-1.4,4.8-5.1,8.5-9.9,9.9c-5.7,1.6-10.7,4.9-14.6,9.2h-29c-11.6,0-20.9,9.4-20.9,20.9v188.3c0,11.6,9.4,20.9,20.9,20.9h167.4
				c11.6,0,20.9-9.4,20.9-20.9v-96.2l30.7-30.7L331.3,194.3z M261,308.9c-3.9,0-4.4,0-14.3,0l-0.2,0V303v-9.2l3.4-3.4l14.8,14.8
				L261,308.9z M225.7,120.6c5.8,0,10.5,4.7,10.5,10.5c0,5.8-4.7,10.5-10.5,10.5s-10.5-4.7-10.5-10.5
				C215.2,125.3,219.9,120.6,225.7,120.6z"/>
		</g>
	</g>
</g>
</svg>
